<svg xmlns="http://www.w3.org/2000/svg" viewBox="0 0 328.5 328.5"><defs><style>.cls-1{fill:none;stroke:url('#logo-gradient');stroke-linecap:round;stroke-linejoin:round;stroke-width:1px;}</style>
<linearGradient id="logo-gradient" x1="50%" y1="0%" x2="75%" y2="100%" > 
            
            <stop offset="0%" stop-color="#F79533">
                <animate attributeName="stop-color" values="#F79533; #F37055; #EF4E7B; #A166AB; #5073B8; #1098AD; #07B39B; #6DBA82; #F79533" dur="5s" repeatCount="indefinite"></animate>
            </stop>

            <stop offset="100%" stop-color="#F79533">
                <animate attributeName="stop-color" values="#F37055; #EF4E7B; #A166AB; #5073B8; #1098AD; #07B39B; #6DBA82; #F79533; #F37055" dur="5s" repeatCount="indefinite"></animate>
            </stop>

        </linearGradient>
</defs><title>brand_2</title>
<g id="Layer_2" data-name="Layer 2"><g id="Layer_1-2" data-name="Layer 1"><line class="cls-1" x1="33.03" y1="0.27" x2="0.27" y2="33.09"/><line class="cls-1" x1="33.03" y1="33.09" x2="0.27" y2="0.27"/><line class="cls-1" x1="92.07" y1="0.27" x2="59.31" y2="33.09"/><line class="cls-1" x1="92.07" y1="33.09" x2="59.31" y2="0.27"/><line class="cls-1" x1="151.11" y1="0.27" x2="118.29" y2="33.09"/><line class="cls-1" x1="151.11" y1="33.09" x2="118.29" y2="0.27"/><line class="cls-1" x1="33.03" y1="59.31" x2="0.27" y2="92.07"/><line class="cls-1" x1="33.03" y1="92.07" x2="0.27" y2="59.31"/><line class="cls-1" x1="92.07" y1="59.31" x2="59.31" y2="92.07"/><line class="cls-1" x1="92.07" y1="92.07" x2="59.31" y2="59.31"/><line class="cls-1" x1="151.11" y1="59.31" x2="118.29" y2="92.07"/><line class="cls-1" x1="151.11" y1="92.07" x2="118.29" y2="59.31"/><line class="cls-1" x1="33.03" y1="118.35" x2="0.27" y2="151.11"/><line class="cls-1" x1="33.03" y1="151.11" x2="0.27" y2="118.35"/><line class="cls-1" x1="92.07" y1="118.35" x2="59.31" y2="151.11"/><line class="cls-1" x1="92.07" y1="151.11" x2="59.31" y2="118.35"/><line class="cls-1" x1="151.11" y1="118.35" x2="118.29" y2="151.11"/><line class="cls-1" x1="151.11" y1="151.11" x2="118.29" y2="118.35"/><line class="cls-1" x1="33.03" y1="177.39" x2="0.27" y2="210.15"/><line class="cls-1" x1="33.03" y1="210.15" x2="0.27" y2="177.39"/><line class="cls-1" x1="92.07" y1="177.39" x2="59.31" y2="210.15"/><line class="cls-1" x1="92.07" y1="210.15" x2="59.31" y2="177.39"/><line class="cls-1" x1="151.11" y1="177.39" x2="118.29" y2="210.15"/><line class="cls-1" x1="151.11" y1="210.15" x2="118.29" y2="177.39"/><line class="cls-1" x1="33.03" y1="236.37" x2="0.27" y2="269.19"/><line class="cls-1" x1="33.03" y1="269.19" x2="0.27" y2="236.37"/><line class="cls-1" x1="92.07" y1="236.37" x2="59.31" y2="269.19"/><line class="cls-1" x1="92.07" y1="269.19" x2="59.31" y2="236.37"/><line class="cls-1" x1="151.11" y1="236.37" x2="118.29" y2="269.19"/><line class="cls-1" x1="151.11" y1="269.19" x2="118.29" y2="236.37"/><line class="cls-1" x1="33.03" y1="295.41" x2="0.27" y2="328.23"/><line class="cls-1" x1="33.03" y1="328.23" x2="0.27" y2="295.41"/><line class="cls-1" x1="92.07" y1="295.41" x2="59.31" y2="328.23"/><line class="cls-1" x1="92.07" y1="328.23" x2="59.31" y2="295.41"/><line class="cls-1" x1="151.11" y1="295.41" x2="118.29" y2="328.23"/><line class="cls-1" x1="151.11" y1="328.23" x2="118.29" y2="295.41"/><line class="cls-1" x1="210.15" y1="0.27" x2="177.33" y2="33.09"/><line class="cls-1" x1="210.15" y1="33.09" x2="177.33" y2="0.27"/><line class="cls-1" x1="269.19" y1="0.27" x2="236.37" y2="33.09"/><line class="cls-1" x1="269.19" y1="33.09" x2="236.37" y2="0.27"/><line class="cls-1" x1="328.23" y1="0.27" x2="295.41" y2="33.09"/><line class="cls-1" x1="328.23" y1="33.09" x2="295.41" y2="0.27"/><line class="cls-1" x1="210.15" y1="59.31" x2="177.33" y2="92.07"/><line class="cls-1" x1="210.15" y1="92.07" x2="177.33" y2="59.31"/><line class="cls-1" x1="269.19" y1="59.31" x2="236.37" y2="92.07"/><line class="cls-1" x1="269.19" y1="92.07" x2="236.37" y2="59.31"/><line class="cls-1" x1="328.23" y1="59.31" x2="295.41" y2="92.07"/><line class="cls-1" x1="328.23" y1="92.07" x2="295.41" y2="59.31"/><line class="cls-1" x1="210.15" y1="118.35" x2="177.33" y2="151.11"/><line class="cls-1" x1="210.15" y1="151.11" x2="177.33" y2="118.35"/><line class="cls-1" x1="269.19" y1="118.35" x2="236.37" y2="151.11"/><line class="cls-1" x1="269.19" y1="151.11" x2="236.37" y2="118.35"/><line class="cls-1" x1="328.23" y1="118.35" x2="295.41" y2="151.11"/><line class="cls-1" x1="328.23" y1="151.11" x2="295.41" y2="118.35"/><line class="cls-1" x1="210.15" y1="177.39" x2="177.33" y2="210.15"/><line class="cls-1" x1="210.15" y1="210.15" x2="177.33" y2="177.39"/><line class="cls-1" x1="269.19" y1="177.39" x2="236.37" y2="210.15"/><line class="cls-1" x1="269.19" y1="210.15" x2="236.37" y2="177.39"/><line class="cls-1" x1="328.23" y1="177.39" x2="295.41" y2="210.15"/><line class="cls-1" x1="328.23" y1="210.15" x2="295.41" y2="177.39"/><line class="cls-1" x1="210.15" y1="236.37" x2="177.33" y2="269.19"/><line class="cls-1" x1="210.15" y1="269.19" x2="177.33" y2="236.37"/><line class="cls-1" x1="269.19" y1="236.37" x2="236.37" y2="269.19"/><line class="cls-1" x1="269.19" y1="269.19" x2="236.37" y2="236.37"/><line class="cls-1" x1="328.23" y1="236.37" x2="295.41" y2="269.19"/><line class="cls-1" x1="328.23" y1="269.19" x2="295.41" y2="236.37"/><line class="cls-1" x1="210.15" y1="295.41" x2="177.33" y2="328.23"/><line class="cls-1" x1="210.15" y1="328.23" x2="177.33" y2="295.41"/><line class="cls-1" x1="269.19" y1="295.41" x2="236.37" y2="328.23"/><line class="cls-1" x1="269.19" y1="328.23" x2="236.37" y2="295.41"/><line class="cls-1" x1="328.23" y1="295.41" x2="295.41" y2="328.23"/><line class="cls-1" x1="328.23" y1="328.23" x2="295.41" y2="295.41"/></g></g></svg>